<svg aria-hidden="true" style="position: absolute; width: 0; height: 0; overflow: hidden;" version="1.1" xmlns="http://www.w3.org/2000/svg" xmlns:xlink="http://www.w3.org/1999/xlink">
<defs>
<symbol id="icon-printer-text" viewBox="0 0 32 32">
<path d="M25 25h2.006c1.654 0 2.994-1.344 2.994-2.999v-9.001c0-1.657-1.341-2.999-2.994-2.999h-2.006v-7c0-1.104-0.891-2-1.997-2h-15.005c-1.103 0-1.997 0.887-1.997 2v7h-2.006c-1.654 0-2.994 1.344-2.994 2.999v9.001c0 1.657 1.341 2.999 2.994 2.999h2.006v4c0 1.104 0.891 2 1.997 2h15.005c1.103 0 1.997-0.887 1.997-2v-4zM6 24h-1.993c-1.109 0-2.007-0.897-2.007-2.003v-8.994c0-1.109 0.899-2.003 2.007-2.003h22.985c1.109 0 2.007 0.897 2.007 2.003v8.994c0 1.109-0.899 2.003-2.007 2.003h-1.993v-3h-19v3zM8 2h15c0.545 0 1 0.446 1 0.997v7.003h-17v-7.003c0-0.544 0.448-0.997 1-0.997zM7 22h17v7.003c0 0.544-0.448 0.997-1 0.997h-15c-0.545 0-1-0.446-1-0.997v-7.003zM24 16c0.552 0 1-0.448 1-1s-0.448-1-1-1c-0.552 0-1 0.448-1 1s0.448 1 1 1v0zM8 24v1h15v-1h-15zM8 27v1h15v-1h-15z"></path>
</symbol>
<symbol id="icon-conservative" viewBox="0 0 24 24">
<path d="M18.215 4h-3.16l-1.6-2h-1.455v-1h-1v1h-1.053l-1.334 2h-4.398c-1.654 0-3.215 0.904-3.215 2.559v12c0 1.654 2 3.441 3 3.441v2h3v-2h8v2h3v-2c2 0 3-1.787 3-3.441v-12c0-1.655-1.131-2.559-2.785-2.559zM10.482 3h2.492l0.799 1h-3.958l0.667-1zM19 18.559c0 0.551-0.234 1.441-0.785 1.441h-14c-0.552 0-1.215-0.89-1.215-1.441v-12c0-0.552 0.663-0.559 1.215-0.559h14c0.551 0 0.785 0.007 0.785 0.559v12zM4 16h14v-8h-14v8zM5 9h12v6h-12v-6zM9.999 19h1.998v-2h-1.998v2z"></path>
</symbol>
<symbol id="icon-aesthetic" viewBox="0 0 24 24">
<path d="M12 8.999c-1.656 0-3 1.344-3 3s1.344 3 3 3 3-1.344 3-3-1.344-3-3-3zM21.231 9.365c-0.325-0.105-0.618-0.272-0.869-0.493-0.404 0.744-0.902 1.507-1.439 2.272-0.835-1.073-1.788-2.156-2.851-3.219-1.055-1.055-2.142-2.012-3.226-2.854 2.577-1.816 5.054-2.909 6.817-2.909 0.716 0 1.264 0.185 1.628 0.549 0.396 0.396 0.571 1.018 0.54 1.806 0.057-0.004 0.11-0.018 0.168-0.018 0.288 0 0.562 0.059 0.819 0.148 0.062-1.121-0.204-2.027-0.82-2.644-0.559-0.559-1.344-0.842-2.335-0.842-2.043 0-4.812 1.219-7.662 3.277-2.85-2.058-5.619-3.278-7.662-3.278-0.212 0-0.411 0.020-0.604 0.046 0.273 0.264 0.479 0.59 0.61 0.955 1.763 0.002 4.238 1.095 6.813 2.91-1.086 0.844-2.174 1.801-3.228 2.856-1.050 1.051-2.007 2.14-2.856 3.234-0.855-1.211-1.56-2.412-2.065-3.553-0.346-0.779-0.577-1.494-0.712-2.14-0.099 0.013-0.195 0.031-0.297 0.031-0.258 0-0.502-0.051-0.736-0.123 0.134 0.796 0.405 1.678 0.831 2.638 0.567 1.281 1.365 2.632 2.345 3.988-0.979 1.354-1.775 2.705-2.343 3.985-1.209 2.727-1.241 4.861-0.091 6.011 0.559 0.559 1.344 0.842 2.335 0.842 3.020 0 7.626-2.656 11.735-6.767 1.053-1.054 2.011-2.146 2.859-3.243 2.77 3.914 3.564 7.25 2.355 8.459-0.364 0.364-0.912 0.549-1.628 0.549-0.943 0-2.095-0.318-3.354-0.887-0.133 0.32-0.33 0.604-0.575 0.842 1.458 0.675 2.804 1.045 3.929 1.045 0.991 0 1.776-0.283 2.335-0.842 1.738-1.738 0.641-5.731-2.449-10.011 0.635-0.881 1.215-1.761 1.683-2.62zM4.341 21.84c-0.716 0-1.264-0.185-1.628-0.549-0.825-0.825-0.717-2.61 0.298-4.898 0.505-1.14 1.209-2.339 2.062-3.55 0.849 1.093 1.805 2.182 2.854 3.23 1.061 1.061 2.154 2.001 3.246 2.846-2.583 1.824-5.067 2.921-6.832 2.921zM15.369 15.366c-1.094 1.094-2.232 2.082-3.364 2.942-1.135-0.862-2.274-1.847-3.371-2.942-1.094-1.094-2.079-2.229-2.943-3.364 0.864-1.137 1.852-2.273 2.946-3.368 1.093-1.094 2.232-2.082 3.365-2.944 1.132 0.861 2.27 1.849 3.363 2.942 1.136 1.136 2.114 2.265 2.952 3.36-0.864 1.14-1.851 2.277-2.948 3.374zM22 5.999c-0.553 0-1 0.447-1 1s0.447 1 1 1 1-0.447 1-1-0.447-1-1-1zM14 18.999c-0.553 0-1 0.447-1 1s0.447 1 1 1 1-0.447 1-1-0.447-1-1-1zM2 3.999c0.553 0 1-0.447 1-1s-0.447-1-1-1-1 0.447-1 1 0.447 1 1 1z"></path>
</symbol>
<symbol id="icon-minimalist" viewBox="0 0 24 24">
<path d="M12.111 0.5l-11.111 5.452v11.034l11 6.514 11-6.514v-11.034l-10.889-5.452zM11 20.584l-8-4.738v-6.675l8 3.953v7.46zM3.464 7.106l8.664-4.366 8.664 4.366-8.664 4.281-8.664-4.281zM21 15.846l-9 5.33v-7.722l9-4.283v6.675z"></path>
</symbol>
<symbol id="icon-royal" viewBox="0 0 32 32">
<path d="M13.581 30.007c7.102 0 13.371-3.936 13.371-10.495 0-2.393-1.119-3.859-1.588-4.631-0.391-0.463-0.391-0.849 0.547-0.926 3.667-0.54 6.086-2.547 6.086-6.405 0-2.084-1.717-4.59-4.838-4.59-1.482 0-3.293 1.426-3.293 2.969 0 0.85 0.874 1.864 2.122 1.864 1.405 0 2.201-1.478 1.967-2.096-0.077-0.386-0.327-0.849 0.218-0.849 1.016 0 2.186 1.312 2.186 2.547 0 2.161-2.029 3.646-5.229 3.646-1.717 0-3.199-1.059-4.838-1.059-4.136 0-6.555 3.278-6.555 6.134 0 3.241 2.497 4.784 4.37 4.784 2.106 0 2.731-1.234 2.731-2.238 0-1.157-0.703-1.929-2.186-1.929-1.17 0-1.717 1.234-1.639 1.852 0.078 0.309-0.156 0.54-0.391 0.54-0.312 0-1.248-1.003-1.248-2.314 0-0.927 0.625-3.973 3.902-3.973 3.511 0 5.957 3.2 5.957 5.824 0 3.704-4.163 7.641-11.264 7.641-7.102 0-11.159-3.241-11.159-7.949 0-2.161 0.937-4.167 2.106-5.016 0.469-0.309 0.703-0.231 0.937 0.154 0.547 0.386 1.795 1.426 2.575 1.426 1.015 0 1.561-1.271 1.561-2.353 0-0.926-1.092-1.562-2.028-1.562s-1.561 0.559-1.951 0.713c-0.546-0.849-0.858-1.929-0.858-2.778 0-2.469 1.795-4.019 3.512-4.019 1.482 0 2.731 1.163 2.497 2.63-0.078 0.386-0.078 0.694 0.078 0.694 0.624 0 2.028-0.926 2.028-2.624 0-2.392-1.794-3.627-4.136-3.627-3.823 0-6.164 2.701-6.164 5.557 0 1.697 0.624 3.241 1.639 4.553-1.561 0.694-4.604 3.318-4.604 7.949 0.001 3.936 2.732 9.956 13.579 9.956z"></path>
</symbol>
<symbol id="icon-adv1" viewBox="0 0 32 32">
<path d="M16 1l-16 16 3 3 3-3v13h8v-6h4v6h8v-13l3 3 3-3-16-16zM16 14c-1.105 0-2-0.895-2-2s0.895-2 2-2c1.105 0 2 0.895 2 2s-0.895 2-2 2z"></path>
</symbol>
<symbol id="icon-adv2" viewBox="0 0 32 32">
<path d="M24.588 12.274c-1.845 0-3.503 0.769-4.683 2.022-0.5 0.531-1.368 1.16-2.306 1.713 0.441-1.683 1.834-3.803 2.801-4.733 1.239-1.193 2-2.87 2-4.734 0-3.59-2.859-6.503-6.4-6.541-3.541 0.038-6.4 2.951-6.4 6.541 0 1.865 0.761 3.542 2 4.734 0.967 0.93 2.36 3.050 2.801 4.733-0.939-0.553-1.806-1.182-2.306-1.713-1.18-1.253-2.838-2.022-4.683-2.022-3.575 0-6.471 2.927-6.471 6.541s2.897 6.542 6.471 6.542c1.845 0 3.503-0.792 4.683-2.045 0.525-0.558 1.451-1.254 2.447-1.832-0.094 4.615-2.298 8.005-4.541 9.341v1.179h12v-1.179c-2.244-1.335-4.448-4.726-4.541-9.341 0.995 0.578 1.922 1.274 2.447 1.832 1.18 1.253 2.838 2.045 4.683 2.045 3.575 0 6.471-2.928 6.471-6.542s-2.897-6.541-6.471-6.541z"></path>
</symbol>
<symbol id="icon-adv3" viewBox="0 0 32 32">
<path d="M32 0h-13l5 5-6 6 3 3 6-6 5 5z"></path>
<path d="M32 32v-13l-5 5-6-6-3 3 6 6-5 5z"></path>
<path d="M0 32h13l-5-5 6-6-3-3-6 6-5-5z"></path>
<path d="M0 0v13l5-5 6 6 3-3-6-6 5-5z"></path>
</symbol>
<symbol id="icon-facebook" viewBox="0 0 32 32">
<path d="M29 0h-26c-1.65 0-3 1.35-3 3v26c0 1.65 1.35 3 3 3h13v-14h-4v-4h4v-2c0-3.306 2.694-6 6-6h4v4h-4c-1.1 0-2 0.9-2 2v2h6l-1 4h-5v14h9c1.65 0 3-1.35 3-3v-26c0-1.65-1.35-3-3-3z"></path>
</symbol>
<symbol id="icon-instagram" viewBox="0 0 32 32">
<path d="M16 2.881c4.275 0 4.781 0.019 6.462 0.094 1.563 0.069 2.406 0.331 2.969 0.55 0.744 0.288 1.281 0.638 1.837 1.194 0.563 0.563 0.906 1.094 1.2 1.838 0.219 0.563 0.481 1.412 0.55 2.969 0.075 1.688 0.094 2.194 0.094 6.463s-0.019 4.781-0.094 6.463c-0.069 1.563-0.331 2.406-0.55 2.969-0.288 0.744-0.637 1.281-1.194 1.837-0.563 0.563-1.094 0.906-1.837 1.2-0.563 0.219-1.413 0.481-2.969 0.55-1.688 0.075-2.194 0.094-6.463 0.094s-4.781-0.019-6.463-0.094c-1.563-0.069-2.406-0.331-2.969-0.55-0.744-0.288-1.281-0.637-1.838-1.194-0.563-0.563-0.906-1.094-1.2-1.837-0.219-0.563-0.481-1.413-0.55-2.969-0.075-1.688-0.094-2.194-0.094-6.463s0.019-4.781 0.094-6.463c0.069-1.563 0.331-2.406 0.55-2.969 0.288-0.744 0.638-1.281 1.194-1.838 0.563-0.563 1.094-0.906 1.838-1.2 0.563-0.219 1.412-0.481 2.969-0.55 1.681-0.075 2.188-0.094 6.463-0.094zM16 0c-4.344 0-4.887 0.019-6.594 0.094-1.7 0.075-2.869 0.35-3.881 0.744-1.056 0.412-1.95 0.956-2.837 1.85-0.894 0.888-1.438 1.781-1.85 2.831-0.394 1.019-0.669 2.181-0.744 3.881-0.075 1.713-0.094 2.256-0.094 6.6s0.019 4.887 0.094 6.594c0.075 1.7 0.35 2.869 0.744 3.881 0.413 1.056 0.956 1.95 1.85 2.837 0.887 0.887 1.781 1.438 2.831 1.844 1.019 0.394 2.181 0.669 3.881 0.744 1.706 0.075 2.25 0.094 6.594 0.094s4.888-0.019 6.594-0.094c1.7-0.075 2.869-0.35 3.881-0.744 1.050-0.406 1.944-0.956 2.831-1.844s1.438-1.781 1.844-2.831c0.394-1.019 0.669-2.181 0.744-3.881 0.075-1.706 0.094-2.25 0.094-6.594s-0.019-4.887-0.094-6.594c-0.075-1.7-0.35-2.869-0.744-3.881-0.394-1.063-0.938-1.956-1.831-2.844-0.887-0.887-1.781-1.438-2.831-1.844-1.019-0.394-2.181-0.669-3.881-0.744-1.712-0.081-2.256-0.1-6.6-0.1v0z"></path>
<path d="M16 7.781c-4.537 0-8.219 3.681-8.219 8.219s3.681 8.219 8.219 8.219 8.219-3.681 8.219-8.219c0-4.537-3.681-8.219-8.219-8.219zM16 21.331c-2.944 0-5.331-2.387-5.331-5.331s2.387-5.331 5.331-5.331c2.944 0 5.331 2.387 5.331 5.331s-2.387 5.331-5.331 5.331z"></path>
<path d="M26.462 7.456c0 1.060-0.859 1.919-1.919 1.919s-1.919-0.859-1.919-1.919c0-1.060 0.859-1.919 1.919-1.919s1.919 0.859 1.919 1.919z"></path>
</symbol>
<symbol id="icon-telegram" viewBox="0 0 32 32">
<path d="M16 0c-8.838 0-16 7.162-16 16s7.162 16 16 16 16-7.163 16-16-7.163-16-16-16zM23.863 10.969l-2.625 12.369c-0.181 0.881-0.712 1.087-1.45 0.681l-4-2.956-1.919 1.869c-0.225 0.219-0.4 0.4-0.8 0.4-0.519 0-0.431-0.194-0.606-0.688l-1.363-4.475-3.956-1.231c-0.856-0.262-0.862-0.85 0.194-1.269l15.412-5.95c0.7-0.319 1.381 0.169 1.113 1.25z"></path>
</symbol>
</defs>
</svg>
